<?xml version="1.0" encoding="utf-8"?>
<!-- Generator: Adobe Illustrator 25.0.0, SVG Export Plug-In . SVG Version: 6.00 Build 0)  -->
<svg version="1.1" id="Layer_1" xmlns="http://www.w3.org/2000/svg" xmlns:xlink="http://www.w3.org/1999/xlink" x="0px" y="0px"
	 viewBox="0 0 595.28 841.89" >
<style type="text/css">
	.st0{fill:#0062FB;}
	.st1{fill:#FF3600;}
</style>
<g>
	<path class="st0" d="M249,470.83v0.92c0,0.28-0.2,0.48-0.48,0.48h-7.9c-0.08,0-0.16,0.08-0.16,0.16v25.42
		c0,0.28-0.2,0.48-0.48,0.48h-1.16c-0.28,0-0.48-0.2-0.48-0.48v-25.42c0-0.08-0.08-0.16-0.16-0.16h-7.5c-0.28,0-0.48-0.2-0.48-0.48
		v-0.92c0-0.28,0.2-0.48,0.48-0.48h17.84C248.8,470.35,249,470.55,249,470.83z"/>
	<path class="st0" d="M262.13,478.45c0.24,0.12,0.32,0.32,0.24,0.6l-0.32,1.16c-0.08,0.32-0.28,0.4-0.6,0.28
		c-0.48-0.16-1.08-0.28-1.92-0.24c-2.99,0.04-5.15,2.59-5.15,5.75v11.81c0,0.28-0.2,0.48-0.48,0.48h-1.16
		c-0.28,0-0.48-0.2-0.48-0.48v-19.15c0-0.28,0.2-0.48,0.48-0.48h1.16c0.28,0,0.48,0.2,0.48,0.48v2.63c0,0.16,0.12,0.2,0.16,0.04
		c1.08-2,2.83-3.31,5.31-3.31C260.89,478.01,261.57,478.21,262.13,478.45z"/>
	<path class="st0" d="M280.41,484.56v13.25c0,0.28-0.2,0.48-0.48,0.48h-1.16c-0.28,0-0.48-0.2-0.48-0.48v-1.72
		c0-0.12-0.08-0.2-0.2-0.08c-1.44,1.72-3.87,2.59-6.42,2.59c-3.31,0-6.54-1.52-6.54-5.67c0-3.95,3.07-6.38,8.22-6.38h4.79
		c0.08,0,0.16-0.08,0.16-0.16v-1.8c0-2.83-1.44-4.87-5.11-4.87c-2.71,0-4.55,1.16-4.99,3.03c-0.08,0.28-0.28,0.44-0.56,0.4
		L266.4,483c-0.28-0.04-0.48-0.2-0.44-0.44c0.52-2.79,3.31-4.71,7.26-4.71C278.01,477.86,280.41,480.57,280.41,484.56z
		 M278.29,492.1v-3.63c0-0.08-0.08-0.16-0.16-0.16h-4.55c-3.75,0-6.34,1.64-6.34,4.51c0,2.71,2.15,3.95,4.83,3.95
		C275.18,496.77,278.29,495.21,278.29,492.1z"/>
	<path class="st0" d="M299.64,470.35h1.16c0.28,0,0.48,0.2,0.48,0.48v26.97c0,0.28-0.2,0.48-0.48,0.48h-1.16
		c-0.28,0-0.48-0.2-0.48-0.48v-1.88c0-0.16-0.12-0.2-0.2-0.08c-1.16,1.75-3.03,2.75-5.39,2.75c-3.71,0-6.26-2.12-7.14-5.31
		c-0.36-1.36-0.44-2.91-0.44-5.03c0-2.07,0.04-3.67,0.4-5.03c0.84-3.23,3.43-5.39,7.18-5.39c2.35,0,4.23,1,5.39,2.71
		c0.08,0.12,0.2,0.04,0.2-0.08v-9.66C299.16,470.55,299.36,470.35,299.64,470.35z M299.12,488.27c0-2.99-0.16-3.87-0.52-4.87
		c-0.52-2.07-2.23-3.67-4.79-3.67c-2.59,0-4.47,1.56-5.07,3.63c-0.4,0.96-0.64,1.83-0.64,4.87c0,2.91,0.2,3.75,0.52,4.75
		c0.56,2.23,2.55,3.75,5.19,3.75c2.59,0,4.27-1.64,4.83-3.75C298.96,492.06,299.12,491.18,299.12,488.27z"/>
	<path class="st0" d="M307.74,472.39c0-1,0.8-1.72,1.84-1.72c1.08,0,1.84,0.72,1.84,1.72c0,1-0.76,1.76-1.84,1.76
		C308.54,474.14,307.74,473.39,307.74,472.39z M308.54,497.81v-19.15c0-0.28,0.2-0.48,0.48-0.48h1.16c0.28,0,0.48,0.2,0.48,0.48
		v19.15c0,0.28-0.2,0.48-0.48,0.48h-1.16C308.74,498.29,308.54,498.09,308.54,497.81z"/>
	<path class="st0" d="M332.64,484.72v13.09c0,0.28-0.2,0.48-0.48,0.48h-1.16c-0.28,0-0.48-0.2-0.48-0.48v-12.69
		c0-3.15-2.11-5.35-5.15-5.35c-3.23,0-5.39,2.16-5.39,5.27v12.77c0,0.28-0.2,0.48-0.48,0.48h-1.16c-0.28,0-0.48-0.2-0.48-0.48
		v-19.15c0-0.28,0.2-0.48,0.48-0.48h1.16c0.28,0,0.48,0.2,0.48,0.48v1.88c0,0.16,0.08,0.2,0.16,0.08c1.16-1.76,3.15-2.71,5.67-2.71
		C329.89,477.9,332.64,480.61,332.64,484.72z"/>
	<path class="st0" d="M352.24,478.17h1.16c0.28,0,0.48,0.2,0.48,0.48v19.19c0,6.18-3.99,8.62-10.29,8.38
		c-0.32-0.04-0.48-0.24-0.48-0.52l0.04-1c0-0.28,0.16-0.48,0.48-0.44c5.71,0.16,8.14-1.92,8.14-6.46v-2c0-0.16-0.12-0.2-0.2-0.08
		c-1.08,1.64-2.83,2.75-5.47,2.75c-3.43,0-6.26-1.96-7.14-5.31c-0.32-1.2-0.44-2.83-0.44-4.91c0-2.11,0.08-3.79,0.48-5.15
		c0.84-3.07,3.43-5.27,7.02-5.27c2.55,0,4.39,1.04,5.55,2.71c0.08,0.12,0.2,0.04,0.2-0.08v-1.84
		C351.76,478.37,351.96,478.17,352.24,478.17z M351.76,488.23c0-3.03-0.04-3.43-0.2-4.27c-0.4-2.31-2.27-4.23-5.15-4.23
		c-2.91,0-4.79,1.92-5.43,4.23c-0.24,0.8-0.36,1.88-0.36,4.23c0,2.35,0.2,3.67,0.36,4.23c0.56,2.35,2.55,4.23,5.43,4.23
		c2.99,0,4.75-1.96,5.15-4.23C351.72,491.66,351.76,491.26,351.76,488.23z"/>
	<path class="st0" d="M368.12,489.99v-11.37c0-5.15,3.63-8.58,9.14-8.58c5.43,0,9.1,3.39,9.1,8.46c0,0.28-0.2,0.48-0.48,0.48
		l-1.16,0.04c-0.32,0-0.48-0.08-0.48-0.24v-0.24c0-3.99-2.79-6.62-6.98-6.62c-4.23,0-7.02,2.63-7.02,6.62v11.57
		c0,3.99,2.79,6.66,7.02,6.66c4.19,0,6.98-2.67,6.98-6.66c0-0.28,0.16-0.44,0.48-0.44l1.16,0.04c0.28,0,0.48,0.08,0.48,0.2v0.2
		c0,5.11-3.67,8.54-9.1,8.54C371.75,498.64,368.12,495.17,368.12,489.99z"/>
	<path class="st0" d="M392.46,493.18c-0.4-1.32-0.48-2.95-0.48-4.99c0-2.12,0.12-3.67,0.44-4.95c0.92-3.23,3.71-5.39,7.54-5.39
		c3.79,0,6.62,2.15,7.5,5.39c0.36,1.32,0.44,2.95,0.44,4.95c0,2.07-0.08,3.67-0.44,4.99c-0.88,3.27-3.75,5.43-7.5,5.43
		C396.13,498.6,393.38,496.45,392.46,493.18z M405.51,492.46c0.2-0.92,0.24-2.47,0.24-4.23c0-1.96-0.04-3.35-0.24-4.23
		c-0.6-2.55-2.67-4.27-5.59-4.27s-4.95,1.72-5.55,4.27c-0.2,0.88-0.24,2.39-0.24,4.23c0,1.92,0.04,3.35,0.24,4.23
		c0.6,2.59,2.63,4.27,5.59,4.27C402.84,496.73,404.91,495.01,405.51,492.46z"/>
	<path class="st0" d="M428.93,484.72v13.09c0,0.28-0.2,0.48-0.48,0.48h-1.16c-0.28,0-0.48-0.2-0.48-0.48v-12.69
		c0-3.15-2.11-5.35-5.15-5.35c-3.23,0-5.39,2.16-5.39,5.27v12.77c0,0.28-0.2,0.48-0.48,0.48h-1.16c-0.28,0-0.48-0.2-0.48-0.48
		v-19.15c0-0.28,0.2-0.48,0.48-0.48h1.16c0.28,0,0.48,0.2,0.48,0.48v1.88c0,0.16,0.08,0.2,0.16,0.08c1.16-1.76,3.15-2.71,5.67-2.71
		C426.18,477.9,428.93,480.61,428.93,484.72z"/>
	<path class="st0" d="M434.56,493.26v-0.44c0-0.28,0.2-0.48,0.48-0.48h1.12c0.28,0,0.48,0.16,0.48,0.4v0.44
		c0,1.88,2.08,3.59,5.19,3.59c3.03,0,5.07-1.64,5.07-3.75c0-2.39-2.59-3.07-5.39-3.91c-3.39-1.04-6.82-2.11-6.82-5.75
		c0-3.27,2.87-5.35,7.02-5.35c4.31,0,7.14,2.27,7.14,5.31v0.04c0,0.28-0.2,0.48-0.48,0.48h-1.08c-0.28,0-0.48-0.12-0.48-0.28v-0.24
		c0-1.96-1.96-3.55-5.15-3.55c-2.95,0-4.95,1.36-4.95,3.47c0,2.23,2.35,2.99,5.19,3.83c3.39,1,7.1,2.03,7.1,5.83
		c0,3.31-2.83,5.59-7.14,5.59C437.47,498.48,434.56,496.13,434.56,493.26z"/>
	<path class="st0" d="M454.47,493.18c-0.4-1.32-0.48-2.95-0.48-4.99c0-2.12,0.12-3.67,0.44-4.95c0.92-3.23,3.71-5.39,7.54-5.39
		c3.79,0,6.62,2.15,7.5,5.39c0.36,1.32,0.44,2.95,0.44,4.95c0,2.07-0.08,3.67-0.44,4.99c-0.88,3.27-3.75,5.43-7.5,5.43
		C458.15,498.6,455.39,496.45,454.47,493.18z M467.52,492.46c0.2-0.92,0.24-2.47,0.24-4.23c0-1.96-0.04-3.35-0.24-4.23
		c-0.6-2.55-2.67-4.27-5.59-4.27s-4.95,1.72-5.55,4.27c-0.2,0.88-0.24,2.39-0.24,4.23c0,1.92,0.04,3.35,0.24,4.23
		c0.6,2.59,2.63,4.27,5.59,4.27C464.85,496.73,466.92,495.01,467.52,492.46z"/>
	<path class="st0" d="M476.18,497.81v-26.97c0-0.28,0.2-0.48,0.48-0.48h1.16c0.28,0,0.48,0.2,0.48,0.48v26.97
		c0,0.28-0.2,0.48-0.48,0.48h-1.16C476.38,498.29,476.18,498.09,476.18,497.81z"/>
	<path class="st0" d="M498.05,493.5c0.16-0.28,0.36-0.36,0.64-0.24l0.72,0.28c0.28,0.12,0.4,0.36,0.28,0.64
		c-1.12,2.63-3.67,4.43-7.22,4.43c-3.75,0-6.3-2-7.3-5.07c-0.44-1.44-0.56-3.15-0.56-5.35c0-2.16,0-3.55,0.32-4.79
		c0.84-3.31,3.59-5.55,7.46-5.55c4.35,0,6.94,2.47,7.62,6.26c0.24,1.08,0.28,2,0.28,4.27c0,0.36-0.2,0.52-0.48,0.52h-12.97
		c-0.08,0-0.16,0.04-0.16,0.16c0,1.6,0.04,2.71,0.2,3.43c0.56,2.51,2.67,4.27,5.75,4.27C495.26,496.73,497.17,495.45,498.05,493.5z
		 M486.68,487.03c0,0.12,0.08,0.16,0.16,0.16h11.13c0.08,0,0.16-0.04,0.16-0.16c0-1.28-0.08-2.43-0.2-3.03
		c-0.56-2.51-2.59-4.27-5.55-4.27c-2.95,0-4.91,1.72-5.43,4.15C486.76,484.6,486.72,485.68,486.68,487.03z"/>
</g>
<g>
	<path class="st0" d="M267.64,430.3c0.87-0.98,1.75-1.09,2.62-0.22l6.22,6.01c0.87,0.87,0.87,1.64,0.22,2.62
		c-4.7,5.9-12.56,9.61-21.51,9.61c-13.76,0-22.6-7.64-25.55-19.22c-0.87-3.17-1.31-6.55-1.31-10.15c0-4.15,0.33-7.53,1.2-10.7
		c2.95-10.7,12.23-17.91,24.46-17.91c14.74,0,22.71,9.39,25.11,24.13c0.33,2.4,0.55,5.13,0.66,7.97c0,1.2-0.66,1.86-1.86,1.86
		h-33.52c-0.44,0-0.65,0.22-0.65,0.66c0.22,1.42,0.44,2.51,0.76,3.38c1.53,4.48,6.01,6.99,12.12,6.99
		C261.53,435.11,265.24,433.25,267.64,430.3z M244.71,410.1c-0.22,0.76-0.55,1.64-0.65,2.73c-0.11,0.44,0.11,0.66,0.55,0.66h18.56
		c0.44,0,0.66-0.22,0.55-0.66c-0.11-0.98-0.22-1.64-0.44-2.29c-1.31-4.15-4.48-6.88-9.5-6.88
		C248.97,403.66,245.91,406.17,244.71,410.1z"/>
	<path class="st0" d="M337.96,410.32v35.27c0,1.2-0.66,1.86-1.86,1.86h-11.68c-1.2,0-1.86-0.66-1.86-1.86v-32.1
		c0-5.79-3.49-9.83-8.84-9.83s-9.06,3.93-9.06,9.83v32.1c0,1.2-0.66,1.86-1.86,1.86h-11.68c-1.2,0-1.86-0.66-1.86-1.86v-52.41
		c0-1.2,0.66-1.86,1.86-1.86h11.68c1.2,0,1.86,0.65,1.86,1.86v3.06c0,0.55,0.33,0.76,0.66,0.33c3.06-4.15,7.42-6.11,13.21-6.11
		C329.99,390.45,337.96,397.87,337.96,410.32z"/>
	<path class="st0" d="M397.69,410.32v35.27c0,1.2-0.66,1.86-1.86,1.86h-11.68c-1.2,0-1.86-0.66-1.86-1.86v-32.1
		c0-5.79-3.49-9.83-8.84-9.83s-9.06,3.93-9.06,9.83v32.1c0,1.2-0.66,1.86-1.86,1.86h-11.68c-1.2,0-1.86-0.66-1.86-1.86v-52.41
		c0-1.2,0.66-1.86,1.86-1.86h11.68c1.2,0,1.86,0.65,1.86,1.86v3.06c0,0.55,0.33,0.76,0.66,0.33c3.06-4.15,7.42-6.11,13.21-6.11
		C389.72,390.45,397.69,397.87,397.69,410.32z"/>
	<path class="st0" d="M446.83,430.3c0.87-0.98,1.75-1.09,2.62-0.22l6.22,6.01c0.87,0.87,0.87,1.64,0.22,2.62
		c-4.7,5.9-12.56,9.61-21.51,9.61c-13.76,0-22.6-7.64-25.55-19.22c-0.87-3.17-1.31-6.55-1.31-10.15c0-4.15,0.33-7.53,1.2-10.7
		c2.95-10.7,12.23-17.91,24.46-17.91c14.74,0,22.71,9.39,25.11,24.13c0.33,2.4,0.55,5.13,0.66,7.97c0,1.2-0.66,1.86-1.86,1.86
		h-33.52c-0.44,0-0.66,0.22-0.66,0.66c0.22,1.42,0.44,2.51,0.76,3.38c1.53,4.48,6,6.99,12.12,6.99
		C440.72,435.11,444.43,433.25,446.83,430.3z M423.9,410.1c-0.22,0.76-0.55,1.64-0.66,2.73c-0.11,0.44,0.11,0.66,0.55,0.66h18.56
		c0.44,0,0.65-0.22,0.55-0.66c-0.11-0.98-0.22-1.64-0.44-2.29c-1.31-4.15-4.48-6.88-9.5-6.88
		C428.16,403.66,425.1,406.17,423.9,410.1z"/>
	<path class="st0" d="M497.5,403.66h-9.83c-0.44,0-0.66,0.22-0.66,0.66v22.6c0,4.7,1.86,6.99,6.22,6.99h3.06
		c1.2,0,1.86,0.66,1.86,1.86v9.39c0,1.09-0.66,1.86-1.86,1.97c-2.07,0.11-4.04,0.22-6,0.22c-11.14,0-18.02-2.62-18.13-14.41v-28.61
		c0-0.44-0.22-0.66-0.66-0.66h-5.57c-1.2,0-1.86-0.65-1.86-1.86v-8.63c0-1.2,0.66-1.86,1.86-1.86h5.57c0.44,0,0.66-0.22,0.66-0.66
		v-12.34c0-1.2,0.66-1.86,1.86-1.86h11.14c1.2,0,1.86,0.66,1.86,1.86v12.34c0,0.44,0.22,0.66,0.66,0.66h9.83
		c1.2,0,1.86,0.65,1.86,1.86v8.63C499.36,403,498.7,403.66,497.5,403.66z"/>
</g>
<path class="st1" d="M219.14,397.95c-1.56-2.69-3.52-5.51-5.99-8.39c0,0,14.24-17.12,1.54-38.74c0,0-8.04-13.99-27.53-15.74H92.32
	c0,0,5.75,22.24,31.24,22.24h58.68c3.07,0,6.02,1.21,8.21,3.36v0c4.19,4.13,4.67,10.73,1.11,15.41l-0.26,0.35
	c-2.21,2.91-5.66,4.62-9.32,4.62h-19.85l-30.32,67.47h62.23c0,0,8.42,0,16.99-6.58C224.49,431.61,227.64,412.65,219.14,397.95z
	 M199.4,422.31c-2.24,2.73-5.58,4.31-9.12,4.31h-25.57l10.83-23.57h14.74c3.53,0,6.88,1.58,9.12,4.31
	C202.96,411.71,202.96,417.97,199.4,422.31z"/>
<polygon class="st0" points="120.47,448.54 150.8,381.06 138.06,381.06 107.57,448.54 "/>
<g>
	<line class="st0" x1="223.85" y1="459.1" x2="502.96" y2="459.1"/>
	<rect x="223.85" y="458.6" class="st0" width="279.1" height="1"/>
</g>
</svg>
